<svg id="Layer_1" data-name="Layer 1" xmlns="http://www.w3.org/2000/svg" width="400" height="250" viewBox="0 0 400 250"><defs><style>.cls-1{opacity:0.6;}.cls-11,.cls-12,.cls-13,.cls-14,.cls-15,.cls-16,.cls-17,.cls-18,.cls-2,.cls-20,.cls-22,.cls-3,.cls-4,.cls-7,.cls-8,.cls-9{fill:none;}.cls-11,.cls-13,.cls-2,.cls-3,.cls-4,.cls-7{stroke:#d8d4ce;}.cls-12,.cls-13,.cls-16,.cls-2,.cls-21,.cls-22,.cls-3,.cls-4{stroke-linecap:round;}.cls-12,.cls-17,.cls-18,.cls-2,.cls-3,.cls-4,.cls-7,.cls-8,.cls-9{stroke-linejoin:round;}.cls-11,.cls-12,.cls-13,.cls-14,.cls-16,.cls-2,.cls-20,.cls-21,.cls-22,.cls-3,.cls-4,.cls-7,.cls-8,.cls-9{stroke-width:2px;}.cls-3{stroke-dasharray:12.67 8.45;}.cls-4{stroke-dasharray:13.25 8.83;}.cls-5{fill:#d8d4ce;}.cls-6{fill:#f3f3f2;}.cls-8{stroke:#93b7ff;}.cls-12,.cls-16,.cls-17,.cls-9{stroke:#c2bbb5;}.cls-10{fill:#c2bbb5;}.cls-11,.cls-13,.cls-14,.cls-16,.cls-20,.cls-21,.cls-22{stroke-miterlimit:10;}.cls-14{stroke:#f3f3f2;}.cls-17{stroke-width:12.71px;}.cls-18,.cls-20,.cls-21,.cls-22{stroke:#aca29c;}.cls-18{stroke-width:17.23px;}.cls-19,.cls-21{fill:#aca29c;}</style></defs><title>No Ads - Large_1</title><g class="cls-1"><polyline class="cls-2" points="137.51 174.49 137.51 180.49 131.51 180.49"/><line class="cls-3" x1="123.07" y1="180.49" x2="42.82" y2="180.49"/><polyline class="cls-2" points="38.6 180.49 32.6 180.49 32.6 174.49"/><line class="cls-4" x1="32.6" y1="165.65" x2="32.6" y2="81.74"/><polyline class="cls-2" points="32.6 77.32 32.6 71.32 38.6 71.32"/><line class="cls-3" x1="47.04" y1="71.32" x2="127.29" y2="71.32"/><polyline class="cls-2" points="131.51 71.32 137.51 71.32 137.51 77.32"/><line class="cls-4" x1="137.51" y1="86.15" x2="137.51" y2="170.07"/></g><g class="cls-1"><polyline class="cls-2" points="360.75 174.49 360.75 180.49 354.75 180.49"/><line class="cls-3" x1="346.31" y1="180.49" x2="266.06" y2="180.49"/><polyline class="cls-2" points="261.84 180.49 255.84 180.49 255.84 174.49"/><line class="cls-4" x1="255.84" y1="165.65" x2="255.84" y2="81.74"/><polyline class="cls-2" points="255.84 77.32 255.84 71.32 261.84 71.32"/><line class="cls-3" x1="270.29" y1="71.32" x2="350.53" y2="71.32"/><polyline class="cls-2" points="354.75 71.32 360.75 71.32 360.75 77.32"/><line class="cls-4" x1="360.75" y1="86.15" x2="360.75" y2="170.07"/></g><g class="cls-1"><polyline class="cls-2" points="249.79 152.58 249.79 158.58 243.79 158.58"/><line class="cls-3" x1="235.34" y1="158.58" x2="155.1" y2="158.58"/><polyline class="cls-2" points="150.88 158.58 144.88 158.58 144.88 152.58"/><line class="cls-4" x1="144.87" y1="143.75" x2="144.87" y2="59.83"/><polyline class="cls-2" points="144.88 55.42 144.88 49.42 150.88 49.42"/><line class="cls-3" x1="159.32" y1="49.42" x2="239.57" y2="49.42"/><polyline class="cls-2" points="243.79 49.42 249.79 49.42 249.79 55.42"/><line class="cls-4" x1="249.79" y1="64.25" x2="249.79" y2="148.17"/></g><rect class="cls-2" x="192.02" y="210.79" width="12.38" height="6.5"/><rect class="cls-5" x="185.18" y="215.68" width="30.48" height="21.33" rx="3"/><rect class="cls-6" x="181.62" y="215.68" width="26.6" height="21.33" rx="2.8"/><rect class="cls-7" x="188.25" y="217.05" width="13.33" height="18.6" transform="translate(421.27 31.43) rotate(90)"/><line class="cls-8" x1="239.93" y1="238.01" x2="266.16" y2="176.09"/><line class="cls-9" x1="258.84" y1="194.05" x2="258.84" y2="237.86"/><polygon class="cls-6" points="223.21 232.63 237.07 236.08 237.26 219.66 223.21 215.76 223.21 232.63"/><path class="cls-10" d="M237,238.16l-24.14-.2a5.46,5.46,0,0,1,3.17-5.82c1.86-.88,2.3-.38,4.63-1.51,1.83-.89,1.85-2.23,2.59-3.24a21.66,21.66,0,0,1,1.73,1.42h0a6.6,6.6,0,0,0,8.59,1.55,9.92,9.92,0,0,1,1.4-.76,5.72,5.72,0,0,1,2.22-.2C237.1,230.07,237.09,237.51,237,238.16Z"/><polygon class="cls-6" points="242.2 232.63 256.07 236.08 256.26 219.66 242.2 215.76 242.2 232.63"/><path class="cls-10" d="M256,238.16l-24.14-.2a5.46,5.46,0,0,1,3.17-5.82c1.86-.88,2.3-.38,4.63-1.51a10.3,10.3,0,0,0,3.77-3.24,1.91,1.91,0,0,1,1.27.93,1.75,1.75,0,0,1,.07,1.18,2.7,2.7,0,0,0,2.38,3.37h.06a5.59,5.59,0,0,0,3.24-.9c1.52-1,2.19-1.86,3.52-2.38a5.72,5.72,0,0,1,2.22-.2C256.1,230.07,256.09,237.51,256,238.16Z"/><rect class="cls-6" x="351.91" y="191.01" width="18.96" height="8.46"/><circle class="cls-5" cx="270" cy="85.84" r="6.92"/><rect class="cls-6" x="331.2" y="157.42" width="10.78" height="80.97"/><rect class="cls-6" x="346.89" y="160.83" width="10.78" height="76.3" transform="translate(-27.33 59.01) rotate(-9.22)"/><line class="cls-11" x1="338.25" y1="157.42" x2="338.25" y2="238.39"/><rect class="cls-5" x="325.14" y="207" width="40.49" height="31.38"/><line class="cls-11" x1="348.82" y1="160.9" x2="361.39" y2="238.38"/><rect class="cls-10" x="350.39" y="207" width="15.25" height="31.38"/><rect class="cls-6" x="184.21" y="24.74" width="18.96" height="8.46"/><rect class="cls-6" x="149.99" y="188.3" width="18.96" height="8.46" transform="translate(318.94 385.06) rotate(-180)"/><rect class="cls-6" x="140.51" y="199.05" width="18.96" height="8.46" transform="translate(299.98 406.55) rotate(-180)"/><line class="cls-12" x1="289.05" y1="194.05" x2="289.05" y2="237.32"/><rect class="cls-10" x="251.49" y="192.02" width="37.11" height="4.76"/><rect class="cls-10" x="243.88" y="208.92" width="37.19" height="4.76"/><rect class="cls-5" x="271.4" y="208.92" width="10.41" height="4.76"/><rect class="cls-5" x="278.47" y="192.02" width="10.58" height="4.76"/><rect class="cls-5" x="283.18" y="228.53" width="8.63" height="9.56"/><polygon class="cls-10" points="287.7 228.53 296.33 228.53 294.07 224.16 285.44 224.16 287.7 228.53"/><rect class="cls-10" x="291.81" y="228.53" width="4.52" height="9.56"/><polyline class="cls-12" points="266.16 176.09 296.9 176.09 270.67 237.32"/><rect class="cls-6" x="294.18" y="41.36" width="18.96" height="8.46"/><rect class="cls-6" x="306.03" y="52.34" width="18.96" height="8.46"/><path class="cls-5" d="M83.74,237.79H56.52l-3.4-5.11a1.34,1.34,0,0,1,1.12-2.08h29.5Z"/><rect class="cls-5" x="82.33" y="218.95" width="16.13" height="18.87"/><rect class="cls-10" x="102.97" y="218.95" width="16.13" height="18.87"/><line class="cls-13" x1="32.82" y1="237.85" x2="373.51" y2="237.85"/><path class="cls-14" d="M119.1,219v9a4,4,0,0,1-4,4h0a4,4,0,0,1-4-4v-9"/><path class="cls-14" d="M95.47,219v7.92a5.07,5.07,0,0,1-5.07,5.07h0a5.07,5.07,0,0,1-5.08-5.07V219"/><rect class="cls-6" x="73.48" y="39.56" width="18.96" height="8.46"/><rect class="cls-6" x="95" y="39.56" width="18.96" height="8.46"/><rect class="cls-6" x="82.92" y="28.96" width="18.96" height="8.46"/><rect class="cls-15" width="400" height="250"/><circle class="cls-5" cx="47.13" cy="85.84" r="6.92"/><circle class="cls-5" cx="157.81" cy="63.19" r="6.92"/><path class="cls-10" d="M240.25,135.61a3.32,3.32,0,0,1,1.5-2.79,3.86,3.86,0,0,0-3.41-2.1c-2.85,0-4.9,2.95-4.64,6,.22,2.53,2,4.3,4.06,4.3a4.66,4.66,0,0,0,4-2.65A3.33,3.33,0,0,1,240.25,135.61Z"/><polygon class="cls-5" points="230.75 142.74 240.36 142.44 240.56 149.06 231.01 151.15 230.75 142.74"/><line class="cls-16" x1="236.15" y1="131.37" x2="236.15" y2="129.24"/><path class="cls-10" d="M230.29,136.72a5,5,0,0,0,4.55,4.3c2,0,3.84-1.77,4.06-4.3.26-3.05-1.8-6-4.64-6S229.69,133.67,230.29,136.72Z"/><path class="cls-5" d="M240.39,143.59a5.47,5.47,0,0,0-1.07-3.84c-1.19-1.45-2.49-1-3.92-2.74a7.25,7.25,0,0,1-1.49-3.2,7.89,7.89,0,0,1-.26-1.33c0-.67,0-1.42-.38-1.56a.45.45,0,0,0-.29,0c-.38.14-.71,1.63-.91,2.76,0-.85,0-1.52,0-2s.06-.9-.22-1.1a.53.53,0,0,0-.42-.09c-.18,0-.33.18-.52.55a4,4,0,0,0-.41,1.51,1,1,0,0,0-.37-1,.53.53,0,0,0-.38-.06c-.55.15-.64,1.47-.69,2.22a5.46,5.46,0,0,0,0,.78c0-.13.17-1-.22-1.26a.44.44,0,0,0-.28,0c-.58.15-.47,3-.31,4.49a22.74,22.74,0,0,0,3.47,9.42Z"/><polyline class="cls-17" points="250.46 146.69 237.66 170.09 235.83 144.1"/><rect class="cls-6" x="238.16" y="180.07" width="21.91" height="9.77"/><polyline class="cls-18" points="258.26 183.99 228.96 183.99 228.96 223.92"/><path class="cls-19" d="M258.14,223.92H240.9V184a8.62,8.62,0,0,1,8.62-8.62H284v8.86a8.38,8.38,0,0,1-8.37,8.38H258.14Z"/><circle class="cls-19" cx="263.86" cy="137.24" r="5.87"/><ellipse class="cls-19" cx="254.92" cy="129.05" rx="7.31" ry="6.97"/><g id="head"><path id="head-2" data-name="head" class="cls-5" d="M254,141.93a4,4,0,0,0,3.37,1.07,3.89,3.89,0,0,0,3-3.19l-2.93-6.58a2,2,0,0,0,2.14-2.75,1.81,1.81,0,0,0-2.1-.9,1.89,1.89,0,0,0-1.08,1.09l-1,.08a10.43,10.43,0,0,0-.56-2.44c-.38-1.07-.51-2.29-1.33-2.4-1.09-.14-2.78.78-4.38.22a9.25,9.25,0,0,0-.5,2,11.39,11.39,0,0,0,0,2.19l-.63,1.37a.58.58,0,0,0,.19.79c.18.11.37.24.5.34,0,.4.25,3,2.22,4.12a3.67,3.67,0,0,0,1,.38C252.83,139.2,253.2,140,254,141.93Zm2.81-8.7h0Z"/><g id="face"><path class="cls-19" d="M252,137.31a9.24,9.24,0,0,0,1,0,8,8,0,0,0,2-.42l-1.76,3.36C252.86,139.26,252.43,138.28,252,137.31Z"/></g></g><path class="cls-19" d="M256.09,126.29c.19,1.77.3,3.26.36,4.38a6.63,6.63,0,0,1-4.11-.72,6.84,6.84,0,0,1-3.17-3.82c.87-.89,4.58-4.55,6-3.66C255.54,122.67,255.75,123.09,256.09,126.29Z"/><path class="cls-10" d="M280.64,175.75H254.78L244.59,150c-2.22-7.37,3.27-10.05,8-10.05h14a11.52,11.52,0,0,1,7.34,2.54,11.13,11.13,0,0,1,3.35,4.68c2.7,8.37,6.67,28.59,6.67,28.59Z"/><path class="cls-19" d="M252.81,157.38l-3.18-17.07a8.78,8.78,0,0,1,2.1-.33c.8,3.36,1.51,6.69,2.31,10.06l8.1-.16v-9.94h2.49L266,156.25l12.86,2.33L284,175.75H254.78l-5.65-14.27Z"/><polyline class="cls-17" points="271.4 149.25 283.84 172.76 257.34 172.88"/><path class="cls-20" d="M240.9,192.6V184a8.62,8.62,0,0,1,8.62-8.62h7.82"/><path class="cls-5" d="M257.34,168.11l-9.12,1.75a3.17,3.17,0,0,0-1.9,1.18l-4.2,5.5a1,1,0,0,0,.35,1.53l2.89,1.46a3.27,3.27,0,0,0,1.18.34l1.21.11a3,3,0,0,0,1.9-.48l3.39-2.19,4.3.31Z"/><rect class="cls-5" x="220.32" y="216.68" width="17.33" height="7.24"/><rect class="cls-5" x="240.85" y="216.68" width="17.33" height="7.24"/><line class="cls-21" x1="242.42" y1="148.12" x2="243.07" y2="160.2"/><line class="cls-21" x1="249.83" y1="161.67" x2="246.09" y2="152.23"/><line class="cls-22" x1="271.4" y1="165.95" x2="277.04" y2="165.95"/><polygon class="cls-6" points="291.81 228.53 283.18 228.53 285.44 224.16 294.07 224.16 291.81 228.53"/><rect class="cls-5" x="285.44" y="221.94" width="8.63" height="2.24"/></svg>
